# xmcd
#
# Track frame offsets: 
#        150
#        12999
#        25829
#        38536
#        51447
#        64692
#        78762
#        92574
#        103886
#        117679
#        130758
#        142800
#        158009
#        172591
#        185971
#        200106
#        212812
#        225736
#        239030
#        252460
#
# Disc length: 3541 seconds
#
# Revision: 0
# Processed by: cddbd v1.5.2PL0 Copyright (c) Steve Scherf et al.
# Submitted via: ExactAudioCopy v0.95b4
#
DISCID=180dd314
DTITLE=Muddy Waters - Got My Mojo Working (Disk 1)
DYEAR=2006
DGENRE=Blues
TTITLE0=Got My Mojo Working
TTITLE1=I'm Your Hoochie Coochie Man
TTITLE2=Baby Please Don't Go
TTITLE3=I Just Wanna Make Love To You
TTITLE4=Mannish Boy
TTITLE5=Rolling Stone
TTITLE6=Mad Love (I Want You To Love Me)
TTITLE7=I Want To Be Loved
TTITLE8=I'm Ready
TTITLE9=Louisiana Blues
TTITLE10=Long Distance Call
TTITLE11=Honey Bee
TTITLE12=Still A Fool
TTITLE13=She Moves Me
TTITLE14=I Feel Like Going Home
TTITLE15=Stuff You Gotta Watch
TTITLE16=Forty Days And Forty Nights
TTITLE17=She Moves Me
TTITLE18=Rollin' And Tumbling (Part 1)
TTITLE19=Walkin' Blues
EXTD=
EXTT0=
EXTT1=
EXTT2=
EXTT3=
EXTT4=
EXTT5=
EXTT6=
EXTT7=
EXTT8=
EXTT9=
EXTT10=
EXTT11=
EXTT12=
EXTT13=
EXTT14=
EXTT15=
EXTT16=
EXTT17=
EXTT18=
EXTT19=
PLAYORDER=
